<svg data-name="ABC Logo" xmlns="http://www.w3.org/2000/svg" width="103.37" height="103.37" viewBox="0 0 103.37 103.37">
    <defs>
        <clipPath id="gam2hc92aa">
            <path data-name="Rectangle 98" style="fill:#ddba7c" d="M0 0h103.37v103.37H0z"/>
        </clipPath>
    </defs>
    <g data-name="Group 46" style="clip-path:url(#gam2hc92aa)">
        <path data-name="Path 84" d="M52.959 44.135a7.755 7.755 0 0 0-8.041 7.657 7.96 7.96 0 0 0 8.041 8.041 7.388 7.388 0 0 0 7.458-7.657c0-4.512-2.946-8.041-7.458-8.041M51.592 0a51.685 51.685 0 1 0 51.778 51.792A51.709 51.709 0 0 0 51.592 0M33.93 64.729h-5.679V61.8a11.582 11.582 0 0 1-7.842 2.932c-5.494 0-8.838-1.765-10.987-4.312a14.444 14.444 0 0 1-3.33-8.625 13.848 13.848 0 0 1 3.53-9.621c2.747-3.33 7.059-4.512 10.973-4.512 3.53 0 13.336 2.163 13.336 13.934zM62.964 61.2a13.553 13.553 0 0 1-9.806 4.512A15.614 15.614 0 0 1 42.37 61.6a14.051 14.051 0 0 1-3.928-10.4V29.618h6.276v11.77l.2-.185a11.046 11.046 0 0 1 7.458-3.145 13.771 13.771 0 0 1 13.919 13.534 17.219 17.219 0 0 1-3.33 9.607m20.794 4.512a13.853 13.853 0 0 1-9.608-4.111 13.5 13.5 0 0 1-4.327-10.2 13.979 13.979 0 0 1 13.934-13.926c5.878 0 11.571 3.914 13.137 9.607h-7.06a6.667 6.667 0 0 0-6.276-3.33c-4.512 0-7.458 3.33-7.458 7.643a7.684 7.684 0 0 0 7.856 8.041 7.348 7.348 0 0 0 5.878-3.33h7.059a13.906 13.906 0 0 1-13.137 9.607" style="fill-rule:evenodd;fill:#ddba7c"/>
        <path data-name="Path 85" d="M24.373 38.3a7.529 7.529 0 0 1-7.842 7.856A7.477 7.477 0 0 1 8.689 38.5a7.788 7.788 0 0 1 7.842-8.041 7.622 7.622 0 0 1 7.842 7.841" transform="translate(3.678 12.892)" style="fill-rule:evenodd;fill:#ddba7c"/>
    </g>
</svg>
