<svg xmlns="http://www.w3.org/2000/svg" width="225.131" height="225.155" viewBox="0 0 225.131 225.155">
    <defs>
        <clipPath id="jzz660krwa">
            <path data-name="Rectangle 89" style="fill:#4b4334" d="M0 0h194.333v194.362H0z"/>
        </clipPath>
    </defs>
    <g data-name="Circle Text Image">
        <text transform="rotate(-19.84 152.53 -205.636)" style="font-family:PlayfairDisplay-Regular,Playfair Display;font-size:20px;fill:#4b4334"><tspan x="0" y="0">Y</tspan></text>
        <g data-name="Group 35">
            <g data-name="Group 34" style="clip-path:url(#jzz660krwa)" transform="matrix(.985 .174 -.174 .985 33.751 0)">
                <text transform="rotate(-21.77 93.473 -147.298)" style="font-size:19px;font-family:PlayfairDisplay-Regular,Playfair Display;fill:#4b4334"><tspan x="0" y="0">o</tspan></text>
                <text transform="rotate(-12.494 130.037 -324.089)" style="font-family:PlayfairDisplay-Regular,Playfair Display;font-size:20px;fill:#4b4334"><tspan x="0" y="0">u</tspan></text>
                <text transform="rotate(-5.91 186.352 -825.905)" style="font-size:18px;font-family:PlayfairDisplay-Regular,Playfair Display;fill:#4b4334"><tspan x="0" y="0"> </tspan></text>
                <text transform="rotate(-.928 1045.64 -5627.571)" style="font-size:19px;font-family:PlayfairDisplay-Regular,Playfair Display;fill:#4b4334"><tspan x="0" y="0">a</tspan></text>
                <text transform="rotate(7.662 -76.511 776.067)" style="font-family:PlayfairDisplay-Regular,Playfair Display;font-size:20px;fill:#4b4334"><tspan x="0" y="0">r</tspan></text>
                <text transform="rotate(15.142 -1.657 435.047)" style="font-size:18px;font-family:PlayfairDisplay-Regular,Playfair Display;fill:#4b4334"><tspan x="0" y="0">e</tspan></text>
                <text transform="rotate(20.936 11.73 346.28)" style="font-size:18px;font-family:PlayfairDisplay-Regular,Playfair Display;fill:#4b4334"><tspan x="0" y="0"> </tspan></text>
            </g>
        </g>
        <text data-name="e" transform="rotate(36.74 14.583 258.734)" style="font-size:18px;font-family:PlayfairDisplay-Regular,Playfair Display;fill:#4b4334"><tspan x="0" y="0">e</tspan></text>
        <text transform="rotate(45.35 20.773 222.799)" style="font-family:PlayfairDisplay-Regular,Playfair Display;font-size:20px;fill:#4b4334"><tspan x="0" y="0">n</tspan></text>
        <text data-name="o" transform="rotate(54.53 28.774 199.997)" style="font-size:19px;font-family:PlayfairDisplay-Regular,Playfair Display;fill:#4b4334"><tspan x="0" y="0">o</tspan></text>
        <text data-name="u" transform="rotate(63.72 33.434 181.502)" style="font-family:PlayfairDisplay-Regular,Playfair Display;font-size:20px;fill:#4b4334"><tspan x="0" y="0">u</tspan></text>
        <text transform="rotate(72.85 37.285 168.45)" style="font-family:PlayfairDisplay-Regular,Playfair Display;font-size:20px;fill:#4b4334"><tspan x="0" y="0">g</tspan></text>
        <g data-name="Group 37">
            <g data-name="Group 36" style="clip-path:url(#jzz660krwa)" transform="matrix(.985 .174 -.174 .985 33.751 0)">
                <text transform="rotate(72.047 40.218 150.8)" style="font-family:PlayfairDisplay-Regular,Playfair Display;font-size:20px;fill:#4b4334"><tspan x="0" y="0">h</tspan></text>
                <text data-name="." transform="rotate(79.062 39.785 145.62)" style="font-family:PlayfairDisplay-Regular,Playfair Display;font-size:20px;fill:#4b4334"><tspan x="0" y="0">.</tspan></text>
                <text transform="rotate(83.05 41.896 143.493)" style="font-size:18px;font-family:PlayfairDisplay-Regular,Playfair Display;fill:#4b4334"><tspan x="0" y="0"> </tspan></text>
                <text data-name="Y" transform="rotate(89.08 43.311 134.502)" style="font-family:PlayfairDisplay-Regular,Playfair Display;font-size:20px;fill:#4b4334"><tspan x="0" y="0">Y</tspan></text>
                <text data-name="o" transform="rotate(97.18 44.592 129.252)" style="font-size:19px;font-family:PlayfairDisplay-Regular,Playfair Display;fill:#4b4334"><tspan x="0" y="0">o</tspan></text>
                <text data-name="u" transform="rotate(106.388 45.541 122.484)" style="font-family:PlayfairDisplay-Regular,Playfair Display;font-size:20px;fill:#4b4334"><tspan x="0" y="0">u</tspan></text>
            </g>
        </g>
        <text transform="scale(-1) rotate(-56.95 -235.408 91.322)" style="font-size:18px;font-family:PlayfairDisplay-Regular,Playfair Display;fill:#4b4334"><tspan x="0" y="0"> </tspan></text>
        <text data-name="a" transform="scale(-1) rotate(-51.01 -256.328 108.258)" style="font-size:19px;font-family:PlayfairDisplay-Regular,Playfair Display;fill:#4b4334"><tspan x="0" y="0">a</tspan></text>
        <text data-name="r" transform="scale(-1) rotate(-43.25 -296.621 132.278)" style="font-family:PlayfairDisplay-Regular,Playfair Display;font-size:20px;fill:#4b4334"><tspan x="0" y="0">r</tspan></text>
        <text data-name="e" transform="scale(-1) rotate(-35.84 -356.089 167.802)" style="font-size:18px;font-family:PlayfairDisplay-Regular,Playfair Display;fill:#4b4334"><tspan x="0" y="0">e</tspan></text>
        <text transform="scale(-1) rotate(-30.11 -418.733 198.952)" style="font-size:18px;font-family:PlayfairDisplay-Regular,Playfair Display;fill:#4b4334"><tspan x="0" y="0"> </tspan></text>
        <text data-name="e" transform="scale(-1) rotate(-24.39 -506.255 258.192)" style="font-size:18px;font-family:PlayfairDisplay-Regular,Playfair Display;fill:#4b4334"><tspan x="0" y="0">e</tspan></text>
        <g data-name="Group 39">
            <g data-name="Group 38" style="clip-path:url(#jzz660krwa)" transform="matrix(.985 .174 -.174 .985 33.751 0)">
                <text data-name="n" transform="rotate(154.208 49.993 98.989)" style="font-family:PlayfairDisplay-Regular,Playfair Display;font-size:20px;fill:#4b4334"><tspan x="0" y="0">n</tspan></text>
                <text data-name="o" transform="rotate(163.54 50.54 95.72)" style="font-size:19px;font-family:PlayfairDisplay-Regular,Playfair Display;fill:#4b4334"><tspan x="0" y="0">o</tspan></text>
                <text data-name="u" transform="rotate(172.779 51.46 91.48)" style="font-family:PlayfairDisplay-Regular,Playfair Display;font-size:20px;fill:#4b4334"><tspan x="0" y="0">u</tspan></text>
                <text data-name="g" transform="scale(-1) rotate(1.83 5492.15 -3236.221)" style="font-family:PlayfairDisplay-Regular,Playfair Display;font-size:20px;fill:#4b4334"><tspan x="0" y="0">g</tspan></text>
                <text data-name="h" transform="rotate(-169.062 52.73 84.301)" style="font-family:PlayfairDisplay-Regular,Playfair Display;font-size:20px;fill:#4b4334"><tspan x="0" y="0">h</tspan></text>
                <text data-name="." transform="rotate(-162.046 51.438 81.2)" style="font-family:PlayfairDisplay-Regular,Playfair Display;font-size:20px;fill:#4b4334"><tspan x="0" y="0">.</tspan></text>
                <text transform="rotate(-158.018 51.213 80.946)" style="font-size:18px;font-family:PlayfairDisplay-Regular,Playfair Display;fill:#4b4334"><tspan x="0" y="0"> </tspan></text>
            </g>
        </g>
        <text data-name="Y" transform="scale(-1) rotate(38.18 225.607 -188.93)" style="font-family:PlayfairDisplay-Regular,Playfair Display;font-size:20px;fill:#4b4334"><tspan x="0" y="0">Y</tspan></text>
        <text data-name="o" transform="scale(-1) rotate(46.23 173.7 -154.913)" style="font-size:19px;font-family:PlayfairDisplay-Regular,Playfair Display;fill:#4b4334"><tspan x="0" y="0">o</tspan></text>
        <text data-name="u" transform="rotate(-124.58 68.199 68.57)" style="font-family:PlayfairDisplay-Regular,Playfair Display;font-size:20px;fill:#4b4334"><tspan x="0" y="0">u</tspan></text>
        <text transform="scale(-1) rotate(61.95 107.951 -110.523)" style="font-size:18px;font-family:PlayfairDisplay-Regular,Playfair Display;fill:#4b4334"><tspan x="0" y="0"> </tspan></text>
        <text data-name="a" transform="scale(-1) rotate(67.85 90.558 -103.62)" style="font-size:19px;font-family:PlayfairDisplay-Regular,Playfair Display;fill:#4b4334"><tspan x="0" y="0">a</tspan></text>
        <g data-name="Group 41">
            <g data-name="Group 40" style="clip-path:url(#jzz660krwa)" transform="matrix(.985 .174 -.174 .985 33.751 0)">
                <text data-name="r" transform="rotate(-114.4 56.652 58.962)" style="font-family:PlayfairDisplay-Regular,Playfair Display;font-size:20px;fill:#4b4334"><tspan x="0" y="0">r</tspan></text>
                <text data-name="e" transform="rotate(-106.86 56.6 56.167)" style="font-size:18px;font-family:PlayfairDisplay-Regular,Playfair Display;fill:#4b4334"><tspan x="0" y="0">e</tspan></text>
                <text transform="scale(-1) rotate(78.93 62.233 -67.672)" style="font-size:18px;font-family:PlayfairDisplay-Regular,Playfair Display;fill:#4b4334"><tspan x="0" y="0"> </tspan></text>
                <text data-name="e" transform="rotate(-95.336 57.813 48.43)" style="font-size:18px;font-family:PlayfairDisplay-Regular,Playfair Display;fill:#4b4334"><tspan x="0" y="0">e</tspan></text>
                <text data-name="n" transform="rotate(-86.827 60.98 40.828)" style="font-family:PlayfairDisplay-Regular,Playfair Display;font-size:20px;fill:#4b4334"><tspan x="0" y="0">n</tspan></text>
                <text data-name="o" transform="rotate(-77.584 61.677 32.534)" style="font-size:19px;font-family:PlayfairDisplay-Regular,Playfair Display;fill:#4b4334"><tspan x="0" y="0">o</tspan></text>
                <text data-name="u" transform="rotate(-68.326 64.547 22.028)" style="font-family:PlayfairDisplay-Regular,Playfair Display;font-size:20px;fill:#4b4334"><tspan x="0" y="0">u</tspan></text>
            </g>
        </g>
        <text data-name="g" transform="rotate(-49.12 94.953 -19.945)" style="font-family:PlayfairDisplay-Regular,Playfair Display;font-size:20px;fill:#4b4334"><tspan x="0" y="0">g</tspan></text>
        <text data-name="h" transform="rotate(-40 104.331 -48.916)" style="font-family:PlayfairDisplay-Regular,Playfair Display;font-size:20px;fill:#4b4334"><tspan x="0" y="0">h</tspan></text>
        <text data-name="." transform="rotate(-33.06 112.561 -88.16)" style="font-family:PlayfairDisplay-Regular,Playfair Display;font-size:20px;fill:#4b4334"><tspan x="0" y="0">.</tspan></text>
        <text transform="rotate(-29.1 114.333 -114.228)" style="font-size:18px;font-family:PlayfairDisplay-Regular,Playfair Display;fill:#4b4334"><tspan x="0" y="0"> </tspan></text>
    </g>
</svg>
