<svg xmlns="http://www.w3.org/2000/svg" width="269.007" height="44.696" viewBox="0 0 269.007 44.696">
    <defs>
        <clipPath id="hfyodekcia">
            <path data-name="Rectangle 100" style="fill:#ddba7c" d="M0 0h269.007v44.696H0z"/>
        </clipPath>
    </defs>
    <g data-name="Cosmopolitan Logo">
        <g data-name="Group 49" style="clip-path:url(#hfyodekcia)">
            <path data-name="Path 86" d="M88.934 4.009A10.2 10.2 0 0 0 77.963.4c-3.995.914-6.787 5.053-7.748 8.758-1.927 7.026-1.829 15.495-.819 22.906.819 4.572 2.455 9.819 7.315 11.7 3.562 1.394 8.278.914 11.021-1.926 4.523-4.765 4.956-11.357 5.293-17.806.145-6.641-.24-13.09-3.127-18.576zM84.8 33.123c-.53 1.926-1.012 4.523-3.369 5.054a3.1 3.1 0 0 1-3.08-1.059c-1.733-2.5-1.78-5.728-1.973-8.855-.289-6.641-.722-13.812 1.347-19.779a3.6 3.6 0 0 1 2.7-2.069 3.171 3.171 0 0 1 3.215 1.636c1.348 2.454 1.4 5.486 1.733 8.373a74.213 74.213 0 0 1-.577 16.7" transform="translate(36.448)" style="fill-rule:evenodd;fill:#ddba7c"/>
            <path data-name="Path 87" d="M27.822.077a10.611 10.611 0 0 0-9.192 6.448 41.126 41.126 0 0 0-2.646 15.3c.193 6.834.144 13.812 4.09 19.058 2.213 2.983 5.535 3.993 9.144 3.609a10.321 10.321 0 0 0 8.229-6.017c2.311-5.053 2.792-10.972 2.792-16.891-.145-5.872-.481-11.694-3.225-16.506A9.96 9.96 0 0 0 27.822.077m3.465 35.612c-.433 1.156-1.492 2.55-2.839 2.646a2.854 2.854 0 0 1-2.6-.77c-1.443-1.4-1.54-3.273-1.924-5.053a78.259 78.259 0 0 1 .384-21.222c.481-1.878.914-4.428 3.273-4.909a3.274 3.274 0 0 1 3.562 1.973c1.731 4.09 1.587 8.951 1.636 13.667-.145 4.716-.049 9.481-1.492 13.667" transform="translate(8.482 .034)" style="fill-rule:evenodd;fill:#ddba7c"/>
            <path data-name="Path 88" d="M50.474 23.305c-3.273-3.513-8.807-5.294-9.961-10.251-.24-2.406-.433-5.438 1.973-6.641a2.82 2.82 0 0 1 2.166.049 4.246 4.246 0 0 1 1.828 3.127c.386 1.589.145 3.537.289 5.221H53.6a18.926 18.926 0 0 0-1.54-9.888 9.13 9.13 0 0 0-4.186-3.9A10.573 10.573 0 0 0 37.24 2.178c-3.8 3.176-4.812 8.374-3.755 13.043 1.252 5.438 7.124 8.373 10.973 12.127a7.746 7.746 0 0 1 2.5 7.122c-.193 1.684-.963 3.609-2.792 4.042a2.98 2.98 0 0 1-2.646-.626c-2.213-2.31-1.733-5.968-1.733-9.191 0 0-4.763-.049-7.075 0-.337 4.33 0 8.855 2.646 12.271 2.648 3.08 6.641 3.946 10.587 3.225a10.064 10.064 0 0 0 7.755-7.459c1.252-4.668.482-10.058-3.224-13.427" transform="translate(17.303 .05)" style="fill-rule:evenodd;fill:#ddba7c"/>
            <path data-name="Path 89" d="M111.827.215c-3.658.191-6.931 3.175-8.229 6.447-2.455 6.015-2.6 13.186-2.311 20.116.579 6.594 1.252 14.246 8.23 17.181 3.608 1.251 8.132.673 10.875-2.166 3.995-4.428 4.668-10.251 5.1-16.17.144-6.641-.1-13.427-2.6-19.105-1.877-4.186-6.352-7.122-11.068-6.3m5.389 33.734c-.481 1.589-1.059 3.562-2.839 4.186a3.316 3.316 0 0 1-3.658-1.2c-1.154-1.443-1.154-3.32-1.54-5.1a79 79 0 0 1 .049-20.212c.337-1.877.914-3.851 2.7-4.909a3.257 3.257 0 0 1 3.609.673c1.78 2.359 1.877 5.438 2.262 8.422a76.157 76.157 0 0 1-.579 18.143" transform="translate(53.69 .041)" style="fill-rule:evenodd;fill:#ddba7c"/>
            <path data-name="Path 90" d="M22.781 26.307H15.61c-.24 3.753.049 7.652-1.587 10.779a2.62 2.62 0 0 1-2.792 1.252C9.884 38 9.21 36.558 8.777 35.355 7.044 28.57 7.141 20.339 7.767 13.17c.288-2.262.53-4.525 2.166-6.208a2.768 2.768 0 0 1 2.454-.289c1.54.722 2.022 2.359 2.31 3.851.386 2.117.386 4.474.626 6.64h7.122c.047-4.427-.577-8.709-2.6-12.319A9.6 9.6 0 0 0 9.017.466C4.012 1.474 1.751 6.769.885 11.148c0 .482-.337 1.059-.1 1.443-.047.049-.193 0-.193.145a67.67 67.67 0 0 0-.573 11.695C.452 30.4.692 36.462 4.2 41.178c2.6 3.32 7.026 4.09 10.924 2.936 6.256-2.31 7.459-9.144 7.8-15.11a9.994 9.994 0 0 0-.145-2.7" transform="translate(0 .08)" style="fill-rule:evenodd;fill:#ddba7c"/>
            <path data-name="Path 91" d="m62.9 25.42-.144.289C61.019 17.479 59.287 9.057 57.7.781h-9.867v42.4h6.521V14.015l3.634 18.143c.77 3.657 2.213 11.021 2.213 11.021h5.2l5.869-27.914V43.2h6.377V.732h-9.553z" transform="translate(25.382 .389)" style="fill-rule:evenodd;fill:#ddba7c"/>
            <path data-name="Path 92" d="M98.45.732 85.939.781V43.2h7.29V28.306h4.163a10.038 10.038 0 0 0 7.7-3.367c4.188-4.332 4.476-11.647 2.5-17.132C106.1 4.2 102.493.876 98.45.732M99.606 20.7c-1.54 1.877-3.921 1.78-6.231 1.78V6.94c.095-.144-.072-.384.216-.337 2.646-.24 5.486.193 6.689 2.79 1.541 3.321 1.685 8.327-.673 11.31" transform="translate(45.603 .389)" style="fill-rule:evenodd;fill:#ddba7c"/>
            <path data-name="Path 93" d="M126.091.732h-7.219v42.446h14.581V37.5h-7.362z" transform="translate(63.078 .389)" style="fill-rule:evenodd;fill:#ddba7c"/>
            <path data-name="Rectangle 99" transform="translate(198.313 1.12)" style="fill:#ddba7c" d="M0 0h7.122v42.494H0z"/>
            <path data-name="Path 94" d="M154.387.732h-19.37v6.112h6.257V43.22h6.941V6.766h6.172z" transform="translate(71.645 .389)" style="fill-rule:evenodd;fill:#ddba7c"/>
            <path data-name="Path 95" d="m152.541.732-6.929 42.518h7.026l1.926-11.864h6.3l2.02 11.838h6.689L162.455.732zm2.792 24.76 2.213-15.375.049-.193c.817 5.149 2.31 15.568 2.31 15.568z" transform="translate(77.268 .389)" style="fill-rule:evenodd;fill:#ddba7c"/>
            <path data-name="Path 96" d="M176.947.732V26.67c-.047-.047-6.763-25.938-6.763-25.938h-7.939V43.2h6.014V16.421c.289.866 7.026 26.8 7.026 26.8h7.627V.732z" transform="translate(86.094 .389)" style="fill-rule:evenodd;fill:#ddba7c"/>
        </g>
    </g>
</svg>
