<svg xmlns="http://www.w3.org/2000/svg" width="172.755" height="44.896" viewBox="0 0 172.755 44.896">
    <g data-name="Dr Phil Logo">
        <path data-name="Path 1" d="M218.521 30.257c3.857 0 7.125 0 10 .821 5.754 1.576 9.085 5.8 9.085 10.784 0 5.677-4.509 8.956-8.365 10.282-3.465 1.134-7.126 1.2-11.048 1.2h-3.856V73.3h5.882v1.855h-18.955V73.3h5.752V32.782h-5.883v-2.525zm-4.183 2.52v18.807h5.373c3.522-.059 5.828-.059 7.59-1.993 1.4-1.463 1.882-3.4 1.882-7.382 0-3.866-.486-5.449-.911-6.327-1.639-3.106-4.432-3.106-10.08-3.106h-3.854" transform="translate(-124.629 -30.257)" style="fill:#ddba7c"/>
        <path data-name="Path 2" d="M284.612 32.782V73.3h-4.379v1.855h14.9V73.3h-4.184V62.8c.132-5.109.263-7.632 2.289-10.156a7.257 7.257 0 0 1 5.75-2.712c4.445 0 4.38 3.531 4.38 6.181V73.3h-4.185v1.855h42.188V73.3H336.4V30.257l-.423.09a40.49 40.49 0 0 1-5.089.431c-1.827.048-3.5.048-4.469.048v1.956h3.648V73.3h-7.063V48.8l-.313.067a36.6 36.6 0 0 1-5.038.4c-1.828.047-3.507.047-4.47.047v1.763h3.676V73.3h-7.083V56.5c0-1.7-.065-4.289-1.569-5.928-1.241-1.324-3.661-2.524-7.321-2.524a12.242 12.242 0 0 0-9.935 4.478V30.257l-.149.032a39.091 39.091 0 0 1-5.4.476c-1.828.048-3.506.048-4.471.048v1.969" transform="translate(-168.62 -30.257)" style="fill:#ddba7c"/>
        <path data-name="Path 3" d="M130.845 73.684V95.34h-4.415v1.86h14.8v-1.86h-4.22v-7.107c.063-4.074.13-7.455 1.949-11.654 1.363-3.134 2.6-3.2 2.725-3.2.65 0 .65.312.78 1.628a2.885 2.885 0 0 0 3.053 2.758 3.218 3.218 0 0 0 3.375-3.258c0-2.193-1.816-3.7-4.218-3.7a7.4 7.4 0 0 0-6.039 3.447 13.009 13.009 0 0 0-1.624 3.194v-6l.051-.018-.051.008v-.07l-1.129.24c-1.325.17-2.8.262-4.156.3-1.78.048-3.411.048-4.351.048v1.721h3.466" transform="translate(-83.082 -52.813)" style="fill:#ddba7c"/>
        <path data-name="Path 4" d="M28.767 72.958h5.781V32.442h-5.391v-1.873h14.611c4.613 0 8.638 0 12.145 1.068 7.729 2.194 14.354 9.65 14.354 20.929a23.1 23.1 0 0 1-6.559 16.542c-5.717 5.642-11.821 5.642-17.082 5.7H28.767zm13.248-40.514v40.524h3.427c3.934 0 8.689 0 11.926-2.877 3.614-3.122 3.869-8.448 3.869-17.935a68.823 68.823 0 0 0-.444-9.489 11.82 11.82 0 0 0-2.727-6.792c-3.046-3.308-6.852-3.308-14.275-3.431h-1.776" transform="translate(-28.767 -30.431)" style="fill:#ddba7c"/>
        <path data-name="Path 5" d="M178.714 117.06a4 4 0 1 1-4-4 4 4 0 0 1 4 4" transform="translate(-107.706 -76.306)" style="fill:#ddba7c"/>
        <path data-name="Path 6" d="M368.085 35.413a4 4 0 1 1-4-4 4 4 0 0 1 4 4" transform="translate(-213.025 -30.898)" style="fill:#ddba7c"/>
    </g>
</svg>
