<svg data-name="Oprah Logo" xmlns="http://www.w3.org/2000/svg" width="77.627" height="103.37" viewBox="0 0 77.627 103.37">
    <defs>
        <clipPath id="1oglpzziba">
            <path data-name="Rectangle 104" style="fill:#ddba7c" d="M0 0h77.627v103.37H0z"/>
        </clipPath>
    </defs>
    <g data-name="Group 51" style="clip-path:url(#1oglpzziba)">
        <path data-name="Path 105" d="M63.415 37.684c0 16.812-2.935 35.653-19.519 35.653-15.571 0-18.731-18.841-18.617-35.089.113-17.714 2.595-36.895 18.729-36.895 16.022 0 19.407 18.5 19.407 36.33M43.9 74.691c19.97 0 34.977-17.374 34.977-37.345C78.873 17.488 64.092 0 44.121 0 24.939 0 9.82 17.94 9.82 37.91c0 19.519 14.555 36.781 34.075 36.781" transform="translate(-5.53)" style="fill:#ddba7c"/>
        <path data-name="Path 106" d="M77.25 191.051a2.537 2.537 0 1 1-2.537-2.609 2.546 2.546 0 0 1 2.537 2.609m1.036 0a3.572 3.572 0 1 0-3.573 3.508 3.494 3.494 0 0 0 3.573-3.508" transform="translate(-40.064 -105.619)" style="fill:#ddba7c"/>
        <path data-name="Path 107" d="M77.25 191.051a2.537 2.537 0 1 1-2.537-2.609 2.546 2.546 0 0 1 2.537 2.609zm1.036 0a3.572 3.572 0 1 0-3.573 3.508 3.494 3.494 0 0 0 3.573-3.508z" transform="translate(-40.064 -105.619)" style="fill:#ddba7c"/>
        <path data-name="Path 108" d="M101.786 189.759a1.064 1.064 0 0 1-1.2 1.025h-.835v-2.05h.835a1.07 1.07 0 0 1 1.2 1.025m1.013 0a1.915 1.915 0 0 0-2.031-1.892h-2.027v6.742h1.015v-2.958h1.012a1.915 1.915 0 0 0 2.031-1.892" transform="translate(-55.605 -105.796)" style="fill:#ddba7c"/>
        <path data-name="Path 109" d="M101.786 189.759a1.064 1.064 0 0 1-1.2 1.025h-.835v-2.05h.835a1.07 1.07 0 0 1 1.2 1.025zm1.013 0a1.915 1.915 0 0 0-2.031-1.892h-2.027v6.742h1.015v-2.958h1.012a1.915 1.915 0 0 0 2.032-1.892z" transform="translate(-55.605 -105.796)" style="fill:#ddba7c"/>
        <path data-name="Path 110" d="M121.895 189.758a1.062 1.062 0 0 1-1.193 1.025h-.941v-2.05h.941a1.068 1.068 0 0 1 1.193 1.025m2.134 4.85-2.3-3.118a1.8 1.8 0 0 0 1.183-1.732 1.913 1.913 0 0 0-2.027-1.892h-2.136v6.742h1.015v-2.958h.951l2.124 2.958z" transform="translate(-66.871 -105.795)" style="fill:#ddba7c"/>
        <path data-name="Path 111" d="M121.895 189.758a1.062 1.062 0 0 1-1.193 1.025h-.941v-2.05h.941a1.068 1.068 0 0 1 1.193 1.025zm2.134 4.85-2.3-3.118a1.8 1.8 0 0 0 1.183-1.732 1.913 1.913 0 0 0-2.027-1.892h-2.136v6.742h1.015v-2.958h.951l2.124 2.958z" transform="translate(-66.871 -105.795)" style="fill:#ddba7c"/>
        <path data-name="Path 112" d="M143.808 191.929h-1.934l.518-1.279c.138-.349.253-.654.436-1.194h.02c.18.529.3.835.443 1.2zm2.1 2.557-2.875-6.837h-.37l-2.873 6.837h1l.729-1.743h2.622l.729 1.743z" transform="translate(-78.724 -105.673)" style="fill:#ddba7c"/>
        <path data-name="Path 113" d="M143.808 191.929h-1.934l.518-1.279c.138-.349.253-.654.436-1.194h.02c.18.529.3.835.443 1.2zm2.1 2.557-2.875-6.837h-.37l-2.873 6.837h1l.729-1.743h2.622l.729 1.743z" transform="translate(-78.724 -105.673)" style="fill:#ddba7c"/>
        <path data-name="Path 114" d="M169.063 194.609v-2.948h-3.477v2.948h-1.022v-6.742h1.022v2.917h3.477v-2.917h1.025v6.742z" transform="translate(-92.673 -105.795)" style="fill:#ddba7c"/>
        <path data-name="Path 115" d="M169.063 194.609v-2.948h-3.477v2.948h-1.022v-6.742h1.022v2.917h3.477v-2.917h1.025v6.742z" transform="translate(-92.673 -105.795)" style="fill:#ddba7c"/>
        <path data-name="Path 116" d="M3.7 188.745v5.9H2.677v-5.9H.51v-.885h5.358v.885z" transform="translate(-.287 -105.792)" style="fill:#ddba7c"/>
        <path data-name="Path 117" d="M3.7 188.745v5.9H2.677v-5.9H.51v-.885h5.358v.885z" transform="translate(-.287 -105.792)" style="fill:#ddba7c"/>
        <path data-name="Path 118" d="M27.678 194.649v-2.968H24.2v2.968h-1.025v-6.788H24.2v2.939h3.477v-2.937H28.7v6.788z" transform="translate(-13.051 -105.792)" style="fill:#ddba7c"/>
        <path data-name="Path 119" d="M27.678 194.649v-2.968H24.2v2.968h-1.025v-6.788H24.2v2.939h3.477v-2.937H28.7v6.788z" transform="translate(-13.051 -105.792)" style="fill:#ddba7c"/>
        <path data-name="Path 120" d="M47.681 194.649v-6.788h3.634v.885h-2.61v2.054h2.188v.883h-2.188v2.086h2.98v.882z" transform="translate(-26.851 -105.792)" style="fill:#ddba7c"/>
        <path data-name="Path 121" d="M47.681 194.649v-6.788h3.634v.885h-2.61v2.054h2.188v.883h-2.188v2.086h2.98v.882z" transform="translate(-26.851 -105.792)" style="fill:#ddba7c"/>
        <path data-name="Path 122" d="m7.013 227.281-.2-2.246a67.965 67.965 0 0 1-.179-2.361h-.022c-.317.67-.665 1.394-1.036 2.117l-1.289 2.544h-.38l-1.3-2.522c-.4-.788-.772-1.522-1.035-2.117h-.021a105.91 105.91 0 0 1-.181 2.36l-.189 2.225h-.91l.582-6.787h.635l1.605 3.117c.391.766.739 1.468 1.035 2.119h.022c.273-.641.612-1.342 1.014-2.129l1.584-3.106h.635l.6 6.787z" transform="translate(-.153 -124.169)" style="fill:#ddba7c"/>
        <path data-name="Path 123" d="m7.013 227.281-.2-2.246a67.965 67.965 0 0 1-.179-2.361h-.022c-.317.67-.665 1.394-1.036 2.117l-1.289 2.544h-.38l-1.3-2.522c-.4-.788-.772-1.522-1.035-2.117h-.021a105.91 105.91 0 0 1-.181 2.36l-.189 2.225h-.91l.582-6.787h.635l1.605 3.117c.391.766.739 1.468 1.035 2.119h.022c.273-.641.612-1.342 1.014-2.129l1.584-3.106h.635l.6 6.787z" transform="translate(-.153 -124.169)" style="fill:#ddba7c"/>
        <path data-name="Path 124" d="M33.022 224.583h-1.935l.519-1.286c.138-.353.254-.661.433-1.2h.021c.18.532.3.843.444 1.215zm2.1 2.574-2.874-6.884h-.369l-2.875 6.884h1l.729-1.757h2.627l.729 1.757z" transform="translate(-16.334 -124.045)" style="fill:#ddba7c"/>
        <path data-name="Path 125" d="M33.022 224.583h-1.935l.519-1.286c.138-.353.254-.661.433-1.2h.021c.18.532.3.843.444 1.215zm2.1 2.574-2.874-6.884h-.369l-2.875 6.884h1l.729-1.757h2.627l.729 1.757z" transform="translate(-16.334 -124.045)" style="fill:#ddba7c"/>
        <path data-name="Path 126" d="M56.917 227.23a3.53 3.53 0 1 1-.063-7.055 4.081 4.081 0 0 1 2.176.543l-.191.894a3.5 3.5 0 0 0-1.869-.543 2.593 2.593 0 0 0-2.716 2.65 2.56 2.56 0 0 0 2.726 2.616 2.488 2.488 0 0 0 1.427-.353v-1.412h-1.552v-.831h2.525v2.761a3.764 3.764 0 0 1-2.463.734" transform="translate(-29.97 -123.99)" style="fill:#ddba7c"/>
        <path data-name="Path 127" d="M56.917 227.23a3.53 3.53 0 1 1-.063-7.055 4.081 4.081 0 0 1 2.176.543l-.191.894a3.5 3.5 0 0 0-1.869-.543 2.593 2.593 0 0 0-2.716 2.65 2.56 2.56 0 0 0 2.726 2.616 2.488 2.488 0 0 0 1.427-.353v-1.412h-1.552v-.831h2.525v2.761a3.764 3.764 0 0 1-2.463.73z" transform="translate(-29.97 -123.99)" style="fill:#ddba7c"/>
        <path data-name="Path 128" d="M82.728 224.583H80.8l.516-1.286c.138-.353.254-.661.435-1.2h.021c.179.532.295.843.443 1.215zm2.1 2.574-2.875-6.884h-.37l-2.874 6.884h1l.727-1.757h2.622l.73 1.757z" transform="translate(-44.327 -124.045)" style="fill:#ddba7c"/>
        <path data-name="Path 129" d="M82.728 224.583H80.8l.516-1.286c.138-.353.254-.661.435-1.2h.021c.179.532.295.843.443 1.215zm2.1 2.574-2.875-6.884h-.37l-2.874 6.884h1l.727-1.757h2.622l.73 1.757z" transform="translate(-44.327 -124.045)" style="fill:#ddba7c"/>
        <path data-name="Path 130" d="M103.434 227.281v-.246l2.217-3.925c.35-.606.7-1.223 1.025-1.744l-.01-.011H103.6v-.861h4.438v.243l-2.228 3.915a99.86 99.86 0 0 1-1.027 1.757l.012.01h3.415v.862z" transform="translate(-58.248 -124.169)" style="fill:#ddba7c"/>
        <path data-name="Path 131" d="M103.434 227.281v-.246l2.217-3.925c.35-.606.7-1.223 1.025-1.744l-.01-.011H103.6v-.861h4.438v.243l-2.228 3.915a99.86 99.86 0 0 1-1.027 1.757l.012.01h3.415v.862z" transform="translate(-58.248 -124.169)" style="fill:#ddba7c"/>
        <path data-name="Rectangle 102" transform="translate(55.233 96.325)" style="fill:#ddba7c" d="M0 0h1.025v6.787H0z"/>
        <path data-name="Rectangle 103" transform="translate(55.233 96.325)" style="fill:#ddba7c" d="M0 0h1.025v6.787H0z"/>
        <path data-name="Path 132" d="m147.531 227.431-2.939-3.192a41.23 41.23 0 0 1-1.774-2.023l-.022.012c.022.616.022 1.1.022 1.6v3.458h-1.028v-6.787h.709l2.567 2.841c.581.647 1.225 1.36 1.744 2.01l.02-.01c-.02-.522-.02-1.086-.02-1.587v-3.255h1.025v6.937z" transform="translate(-79.848 -124.169)" style="fill:#ddba7c"/>
        <path data-name="Path 133" d="m147.531 227.431-2.939-3.192a41.23 41.23 0 0 1-1.774-2.023l-.022.012c.022.616.022 1.1.022 1.6v3.458h-1.028v-6.787h.709l2.567 2.841c.581.647 1.225 1.36 1.744 2.01l.02-.01c-.02-.522-.02-1.086-.02-1.587v-3.255h1.025v6.937z" transform="translate(-79.848 -124.169)" style="fill:#ddba7c"/>
        <path data-name="Path 134" d="M168.281 227.281v-6.787h3.634v.882h-2.609v2.055h2.188v.882h-2.188v2.087h2.979v.883z" transform="translate(-94.766 -124.169)" style="fill:#ddba7c"/>
        <path data-name="Path 135" d="M168.281 227.281v-6.787h3.634v.882h-2.609v2.055h2.188v.882h-2.188v2.087h2.979v.883z" transform="translate(-94.766 -124.169)" style="fill:#ddba7c"/>
    </g>
</svg>
